          <svg width="1024px" height="590px" viewBox="0 0 1024 590" version="1.1" xmlns="http://www.w3.org/2000/svg" xmlns:xlink="http://www.w3.org/1999/xlink">
              <!-- Generator: Sketch 46.1 (44463) - http://www.bohemiancoding.com/sketch -->
              <desc>Created with Sketch.</desc>
              <defs>
                  <rect id="path-1" x="0" y="0" width="1029" height="640"></rect>
                  <path d="M0.185456083,0.0667568233 L16.817074,0.0667568233 C16.817074,0.0667568233 46.3947449,34.6384015 62.6659902,46.600614 C66.020917,49.0670723 69.267299,49.6534558 71.0659506,49.794702 C88.3399444,51.1512103 108.690862,50.6179293 108.690862,50.6179293 L232.623896,50.6179293 C232.623896,50.6179293 282.978455,49.3695425 299.036782,50.6179293 C315.095108,51.866316 317.140675,57.188329 317.140675,57.188329 C317.140675,57.188329 319.631826,61.1416487 322.133392,61.1416486 C324.634958,61.1416484 327.701541,63.2174697 327.701563,65.7626652 C327.701585,68.3078606 319.899947,76.3993419 304.693976,77.4470076 C289.488004,78.4946732 276.124256,79.6711301 260.261752,79.6711268 C244.399247,79.6711235 127.975217,80.1610802 115.136397,79.6867372 C102.297576,79.2123941 74.958953,76.0704579 57.2666466,71.3266884 C39.5743403,66.582919 31.0906748,60.0372191 18.6742811,58.1121775 C6.25788737,56.187136 4.82532222,49.794702 4.82532222,49.794702 L17.2002179,49.6925257 L0.185456083,0.0667568233 Z" id="path-3"></path>
                  <ellipse id="path-5" cx="31.4880621" cy="56.4420997" rx="11.3357024" ry="5.66940733"></ellipse>
                  <rect id="path-6" x="-5.03808994" y="-7.18124929" width="85.6475289" height="55.434205"></rect>
                  <path d="M328.566289,65.9014126 C328.566289,65.9014126 312.452169,72.6382822 295.071969,74.0086595 C277.691768,75.3790368 237.207242,74.077547 232.152134,74.0775474 C227.097026,74.0775478 114.611796,74.8433104 103.669617,73.9182441 C92.7274387,72.9931778 75.413645,71.2875864 51.8063333,65.1756291 C28.1990217,59.0636718 4.80183129,49.4527627 4.80183129,49.4527627 L4.80183129,54.6713886 L-0.890142473,116.080111 L141.917744,119.778531 L274.330098,120.559055 L336.969538,114.760169 L328.566289,65.9014126 Z" id="path-7"></path>
                  <polygon id="path-8" points="45.987858 14.4314861 -3.64623444e-15 5.03947318 28.9024959 16.2600865"></polygon>
                  <linearGradient x1="50%" y1="0%" x2="50%" y2="100%" id="linearGradient-9">
                      <stop stop-color="#E6E6E6" offset="0%"></stop>
                      <stop stop-color="#C8C8C8" offset="100%"></stop>
                  </linearGradient>
                  <path d="M230.456663,32.7220081 C230.456663,32.7220081 212.118238,31.0604605 204.726348,33.7387372 C197.334458,36.4170139 190.949903,37.4617501 190.949903,37.4617501 L190.949903,47.6559015 C190.949903,47.6559015 200.899636,49.5278516 210.703283,49.6996242 C220.506929,49.8713968 230.456663,48.3481111 230.456663,48.3481111 L230.456663,32.7220081 Z" id="path-10"></path>
                  <linearGradient x1="48.688752%" y1="13.1706975%" x2="50%" y2="100%" id="linearGradient-12">
                      <stop stop-color="#FFFFFF" offset="0%"></stop>
                      <stop stop-color="#626262" offset="100%"></stop>
                  </linearGradient>
              </defs>
              <g id="Welcome" stroke="none" stroke-width="1" fill="none" fill-rule="evenodd">
                  <g id="Desktop">
                      <g id="Assets" transform="translate(0.000000, -50.000000)">
                          <mask id="mask-2" fill="white">
                              <use xlink:href="#path-1"></use>
                          </mask>
                          <use id="Rectangle-1" fill="#33C066" xlink:href="#path-1"></use>
                          <g id="Group" opacity="0.5" mask="url(#mask-2)" fill="#FFFFFF">
                              <g transform="translate(462.600000, 496.023785) scale(-1, 1) translate(-462.600000, -496.023785) translate(-172.400000, 239.023785)">
                                  <path d="M102.916114,223.714286 C55.1233475,223.714286 16.3796551,193.013811 16.3796551,155.142857 C16.3796551,117.271903 55.1233475,86.5714286 102.916114,86.5714286 C150.708881,86.5714286 189.452573,117.271903 189.452573,155.142857 C189.452573,193.013811 150.708881,223.714286 102.916114,223.714286 L102.916114,223.714286 Z" id="Oval-1-Copy-17" transform="translate(102.916114, 155.142857) rotate(-17.000000) translate(-102.916114, -155.142857) "></path>
                                  <path d="M215.143085,280.857143 C174.071176,280.857143 140.775815,250.156669 140.775815,212.285714 C140.775815,174.41476 174.071176,143.714286 215.143085,143.714286 C256.214993,143.714286 289.510354,174.41476 289.510354,212.285714 C289.510354,250.156669 256.214993,280.857143 215.143085,280.857143 L215.143085,280.857143 Z" id="Oval-1-Copy-16" transform="translate(215.143085, 212.285714) rotate(-17.000000) translate(-215.143085, -212.285714) "></path>
                                  <path d="M597.79649,355.142857 C547.016675,355.142857 505.851502,324.442383 505.851502,286.571429 C505.851502,248.700474 547.016675,218 597.79649,218 C648.576304,218 689.741478,248.700474 689.741478,286.571429 C689.741478,324.442383 648.576304,355.142857 597.79649,355.142857 L597.79649,355.142857 Z" id="Oval-1-Copy-15" transform="translate(597.796490, 286.571429) rotate(-17.000000) translate(-597.796490, -286.571429) "></path>
                                  <path d="M710.02346,355.142857 C668.951551,355.142857 635.656191,324.442383 635.656191,286.571429 C635.656191,248.700474 668.951551,218 710.02346,218 C751.095369,218 784.39073,248.700474 784.39073,286.571429 C784.39073,324.442383 751.095369,355.142857 710.02346,355.142857 L710.02346,355.142857 Z" id="Oval-1-Copy-14" transform="translate(710.023460, 286.571429) rotate(-17.000000) translate(-710.023460, -286.571429) "></path>
                                  <path d="M816.841902,369.428571 C761.581515,369.428571 716.784121,330.413385 716.784121,282.285714 C716.784121,234.158043 761.581515,195.142857 816.841902,195.142857 C872.102288,195.142857 916.899683,234.158043 916.899683,282.285714 C916.899683,330.413385 872.102288,369.428571 816.841902,369.428571 L816.841902,369.428571 Z" id="Oval-1-Copy-13" transform="translate(816.841902, 282.285714) rotate(-17.000000) translate(-816.841902, -282.285714) "></path>
                                  <path d="M916.899683,329.428571 C861.639296,329.428571 816.841902,290.413385 816.841902,242.285714 C816.841902,194.158043 861.639296,155.142857 916.899683,155.142857 C972.160069,155.142857 1016.95746,194.158043 1016.95746,242.285714 C1016.95746,290.413385 972.160069,329.428571 916.899683,329.428571 L916.899683,329.428571 Z" id="Oval-1-Copy-12" transform="translate(916.899683, 242.285714) rotate(-17.000000) translate(-916.899683, -242.285714) "></path>
                                  <path d="M995.323349,278 C962.465822,278 935.829533,238.984814 935.829533,190.857143 C935.829533,142.729472 962.465822,103.714286 995.323349,103.714286 C1028.18088,103.714286 1054.81716,142.729472 1054.81716,190.857143 C1054.81716,238.984814 1028.18088,278 995.323349,278 L995.323349,278 Z" id="Oval-1-Copy-11" transform="translate(995.323349, 190.857143) rotate(-17.000000) translate(-995.323349, -190.857143) "></path>
                                  <path d="M1126.48017,258 C1063.0054,258 1011.54893,206.832543 1011.54893,143.714286 C1011.54893,80.5960286 1063.0054,29.4285714 1126.48017,29.4285714 C1189.95494,29.4285714 1241.4114,80.5960286 1241.4114,143.714286 C1241.4114,206.832543 1189.95494,258 1126.48017,258 L1126.48017,258 Z" id="Oval-1-Copy-10" transform="translate(1126.480170, 143.714286) rotate(-17.000000) translate(-1126.480170, -143.714286) "></path>
                                  <path d="M367.93402,458 C249.945628,458 154.297137,388.28434 154.297137,302.285714 C154.297137,216.287089 249.945628,146.571429 367.93402,146.571429 C485.922413,146.571429 581.570904,216.287089 581.570904,302.285714 C581.570904,388.28434 485.922413,458 367.93402,458 L367.93402,458 Z" id="Oval-1-Copy-9" transform="translate(367.934020, 302.285714) rotate(-17.000000) translate(-367.934020, -302.285714) "></path>
                              </g>
                          </g>
                          <ellipse id="Oval-1" fill="#FFFFFF" mask="url(#mask-2)" transform="translate(-20.008333, 457.142857) rotate(4.000000) translate(20.008333, -457.142857) " cx="-20.0083333" cy="457.142857" rx="91.4666667" ry="68.5714286"></ellipse>
                          <ellipse id="Oval-1-Copy" fill="#FFFFFF" mask="url(#mask-2)" transform="translate(98.612500, 514.285714) rotate(4.000000) translate(-98.612500, -514.285714) " cx="98.6125" cy="514.285714" rx="78.6041667" ry="68.5714286"></ellipse>
                          <ellipse id="Oval-1-Copy-3" fill="#FFFFFF" mask="url(#mask-2)" transform="translate(503.066667, 588.571429) rotate(4.000000) translate(-503.066667, -588.571429) " cx="503.066667" cy="588.571429" rx="97.1833333" ry="68.5714286"></ellipse>
                          <ellipse id="Oval-1-Copy-4" fill="#FFFFFF" mask="url(#mask-2)" transform="translate(621.687500, 588.571429) rotate(4.000000) translate(-621.687500, -588.571429) " cx="621.6875" cy="588.571429" rx="78.6041667" ry="68.5714286"></ellipse>
                          <ellipse id="Oval-1-Copy-5" fill="#FFFFFF" mask="url(#mask-2)" transform="translate(734.591667, 584.285714) rotate(4.000000) translate(-734.591667, -584.285714) " cx="734.591667" cy="584.285714" rx="105.758333" ry="87.1428571"></ellipse>
                          <ellipse id="Oval-1-Copy-6" fill="#FFFFFF" mask="url(#mask-2)" transform="translate(840.350000, 544.285714) rotate(4.000000) translate(-840.350000, -544.285714) " cx="840.35" cy="544.285714" rx="105.758333" ry="87.1428571"></ellipse>
                          <ellipse id="Oval-1-Copy-7" fill="#FFFFFF" mask="url(#mask-2)" transform="translate(923.241667, 492.857143) rotate(4.000000) translate(-923.241667, -492.857143) " cx="923.241667" cy="492.857143" rx="62.8833333" ry="87.1428571"></ellipse>
                          <ellipse id="Oval-1-Copy-8" fill="#FFFFFF" mask="url(#mask-2)" transform="translate(1061.870833, 445.714286) rotate(4.000000) translate(-1061.870833, -445.714286) " cx="1061.87083" cy="445.714286" rx="121.479167" ry="114.285714"></ellipse>
                          <path d="M260.108333,760 C384.818832,760 485.916667,690.28434 485.916667,604.285714 C485.916667,518.287089 384.818832,448.571429 260.108333,448.571429 C135.397834,448.571429 34.3,518.287089 34.3,604.285714 C34.3,690.28434 135.397834,760 260.108333,760 Z" id="Oval-1-Copy-2" fill="#FFFFFF" mask="url(#mask-2)" transform="translate(260.108333, 604.285714) rotate(4.000000) translate(-260.108333, -604.285714) "></path>
                          <path d="M917.525,788.571429 C1042.2355,788.571429 1143.33333,718.855768 1143.33333,632.857143 C1143.33333,546.858518 1042.2355,477.142857 917.525,477.142857 C792.814501,477.142857 691.716667,546.858518 691.716667,632.857143 C691.716667,718.855768 792.814501,788.571429 917.525,788.571429 Z" id="Oval-1-Copy-18" fill="#FFFFFF" mask="url(#mask-2)" transform="translate(917.525000, 632.857143) rotate(4.000000) translate(-917.525000, -632.857143) "></path>
                          <path d="M2.85833333,788.571429 C127.568832,788.571429 228.666667,718.855768 228.666667,632.857143 C228.666667,546.858518 127.568832,477.142857 2.85833333,477.142857 C-121.852166,477.142857 -222.95,546.858518 -222.95,632.857143 C-222.95,718.855768 -121.852166,788.571429 2.85833333,788.571429 Z" id="Oval-1-Copy-19" fill="#FFFFFF" mask="url(#mask-2)" transform="translate(2.858333, 632.857143) rotate(4.000000) translate(-2.858333, -632.857143) "></path>
                          <g id="plane" mask="url(#mask-2)">
                              <g transform="translate(370.000000, 174.000000)">
                                  <g id="Group" stroke-width="1" fill="none" transform="translate(5.038090, 0.000000)">
                                      <mask id="mask-4" fill="white">
                                          <use xlink:href="#path-3"></use>
                                      </mask>
                                      <use id="Path-1" fill="#F7F7F7" xlink:href="#path-3"></use>
                                      <g id="Oval-1" mask="url(#mask-4)" stroke-width="0.5">
                                          <use stroke="#D2E5EE" xlink:href="#path-5"></use>
                                          <ellipse stroke="#F0F0F0" cx="31.4880621" cy="56.4420997" rx="11.5857024" ry="5.91940733"></ellipse>
                                      </g>
                                      <g id="Rectangle-1" mask="url(#mask-4)">
                                          <use fill="#008D33" fill-rule="evenodd" xlink:href="#path-6"></use>
                                          <rect stroke="#009D3B" stroke-width="0.5" x="-4.78808994" y="-6.93124929" width="85.1475289" height="54.934205"></rect>
                                          <rect stroke="#FFFFFF" stroke-width="0.5" x="-5.28808994" y="-7.43124929" width="86.1475289" height="55.934205"></rect>
                                          <rect stroke="#50AED7" stroke-width="0.5" x="-5.28808994" y="-7.43124929" width="86.1475289" height="55.934205"></rect>
                                      </g>
                                      <g id="Group-4" mask="url(#mask-4)" fill="#FFFFFF">
                                          <g transform="translate(19.000000, 23.000000)">
                                              <polygon id="Fill-18" points="11.1965827 10.1925706 8.05816147 10.1925706 8.05816147 8.83526779 11.1965827 8.83526779"></polygon>
                                              <path d="M8.34424245,3.31464037 C10.4051547,3.31464037 11.8990809,3.66631633 12.5531147,4.30344354 L12.6001675,4.25777134 L12.6001675,2.80996254 C11.6097062,2.31213554 10.1863592,2.06093843 8.34424245,2.06093843 C5.21287915,2.06093843 2.56851224,4.60031286 2.56851224,7.61011097 L2.56851224,7.96863775 C2.56851224,10.9807195 5.08583661,13.5200939 8.06898361,13.5200939 C10.6168923,13.5200939 11.6332326,12.6500385 11.741454,12.5518432 L11.9414284,12.3645872 L11.9414284,8.83184237 L10.6474766,8.83184237 L10.6474766,11.7639977 C10.2992859,11.9489702 9.49938849,12.2641084 8.06898361,12.2641084 C5.78927585,12.2641084 3.86011138,10.2979201 3.86011138,7.96863775 L3.86011138,7.61011097 C3.86011138,5.28082867 5.91396575,3.31464037 8.34424245,3.31464037" id="Fill-20"></path>
                                              <path d="M8.05816147,8.12506505 L12.6975668,8.12506505 L12.6975668,12.687718 C12.2999707,13.0942006 10.9213239,14.2542746 8.06992467,14.2542746 C4.67741838,14.2542746 1.81190335,11.3746422 1.81190335,7.96977956 L1.81190335,7.61125277 C1.81190335,4.2041065 4.80446091,1.32675778 8.3451835,1.32675778 C10.0226155,1.32675778 11.5400681,1.61220904 12.6011085,2.12145409 L12.6011085,0.751288034 C11.4271414,0.315118505 9.93792051,0.0684886138 8.3451835,0.0684886138 C4.10102167,0.0684886138 0.517951573,3.52359069 0.517951573,7.61125277 L0.517951573,7.96977956 C0.517951573,12.0574416 3.97633178,15.5102601 8.06992467,15.5102601 C12.1588123,15.5102601 13.8009547,13.3773683 13.8668286,13.2860239 L13.9915185,13.1238876 L13.9915185,6.86679588 L8.05816147,6.86679588 L8.05816147,8.12506505 Z" id="Fill-21"></path>
                                          </g>
                                      </g>
                                      <g id="Path-2" mask="url(#mask-4)">
                                          <use fill="#008D33" fill-rule="evenodd" xlink:href="#path-7"></use>
                                          <path stroke="#009D3B" stroke-width="0.5" d="M328.372691,66.2506934 C328.213121,66.315011 328.008708,66.3962616 327.761231,66.4929935 C327.029094,66.7791653 326.180904,67.0979365 325.226651,67.441154 C322.501113,68.4214517 319.47134,69.4016352 316.217202,70.3164668 C309.110724,72.3143016 301.961494,73.7162167 295.091619,74.257886 C288.883662,74.747365 279.397534,74.9316467 267.290585,74.876899 C260.845008,74.847752 254.080521,74.7545175 246.46151,74.6067785 C245.935238,74.5965736 233.238197,74.3275473 232.152134,74.3275474 C231.524652,74.3275474 211.664404,74.433788 202.439329,74.4763599 C190.114048,74.5332385 178.505812,74.5758732 167.572281,74.6009197 C131.468504,74.6836262 108.337398,74.5637563 103.648557,74.1673554 C85.8552168,72.6630828 71.1509583,70.4422153 51.743674,65.4176494 C45.8583507,63.8939331 39.6782399,62.0743945 33.3133182,60.0213316 C26.3032908,57.7601841 19.4380187,55.3376323 13.0027812,52.915058 C10.7503665,52.0671262 8.71252289,51.2797301 6.92492456,50.573044 C6.29915118,50.3256588 5.74932153,50.106018 5.2798953,49.9166435 C5.19586923,49.882746 5.11978328,49.8519873 5.05175563,49.8244341 L5.05076423,54.6944621 L-0.61654734,115.837112 L141.919217,119.528535 L274.307053,120.31012 L336.677338,114.53615 L328.372691,66.2506934 Z"></path>
                                      </g>
                                      <path d="M318.215389,56.9060497 L308.858275,57.6365734 C308.310216,57.6793613 307.94412,58.155947 308.040008,58.697841 L308.572972,61.7097764 C308.669115,62.2531104 309.190782,62.6539831 309.752776,62.6038457 L323.049522,61.4175952 L318.215389,56.9060497 Z" id="Combined-Shape" fill="#008D33" mask="url(#mask-4)"></path>
                                  </g>
                                  <g id="Group-2" stroke-width="1" fill="none" transform="translate(0.000000, 40.693746)">
                                      <ellipse id="Oval-2" fill="#78C0DF" cx="216.637867" cy="37.7960489" rx="1.25952248" ry="1.2598683"></ellipse>
                                      <g id="Path-3" stroke-width="0.5">
                                          <use stroke="#009D3B" fill="#008D33" fill-rule="evenodd" xlink:href="#path-8"></use>
                                          <use stroke-opacity="0.1" stroke="#FFFFFF" xlink:href="#path-8"></use>
                                      </g>
                                      <path d="M133.680018,23.9374976 L130.724273,30.7728987 C130.724273,30.7728987 126.219465,31.8786172 129.949742,33.6804649 C133.680019,35.4823126 136.301463,34.3150707 137.513376,37.5644356 C138.725289,40.8138005 157.513923,41.3020023 160.184914,41.3020026 C162.855905,41.3020028 236.617993,45.1603386 236.617995,37.6139964 C236.617998,30.0676541 231.859184,29.915554 228.376078,27.9479338 C224.892971,25.9803136 133.680018,23.9374976 133.680018,23.9374976 Z" id="Path-4" fill="#F7F7F7"></path>
                                      <rect id="Rectangle-2-Copy-23" fill="#33C066" x="243.814103" y="18.8980244" width="2.51904497" height="3.77960489" rx="1"></rect>
                                      <rect id="Rectangle-2-Copy-22" fill="#33C066" x="247.59267" y="18.8980244" width="2.51904497" height="3.77960489" rx="1"></rect>
                                      <rect id="Rectangle-2-Copy-21" fill="#33C066" x="251.371238" y="18.8980244" width="2.51904497" height="3.77960489" rx="1"></rect>
                                      <rect id="Rectangle-2-Copy-20" fill="#33C066" x="256.409328" y="18.8980244" width="2.51904497" height="3.77960489" rx="1"></rect>
                                      <rect id="Rectangle-2-Copy-19" fill="#33C066" x="260.187895" y="18.8980244" width="2.51904497" height="3.77960489" rx="1"></rect>
                                      <rect id="Rectangle-2-Copy-17" fill="#33C066" x="271.523597" y="18.8980244" width="2.51904497" height="3.77960489" rx="1"></rect>
                                      <rect id="Rectangle-2-Copy-16" fill="#33C066" x="275.302165" y="18.8980244" width="2.51904497" height="3.77960489" rx="1"></rect>
                                      <rect id="Rectangle-2-Copy-15" fill="#33C066" x="279.080732" y="18.8980244" width="2.51904497" height="3.77960489" rx="1"></rect>
                                      <rect id="Rectangle-2-Copy-14" fill="#33C066" x="282.8593" y="18.8980244" width="2.51904497" height="3.77960489" rx="1"></rect>
                                      <rect id="Rectangle-2-Copy-28" stroke="#979797" stroke-width="0.5" opacity="0.3" x="223.18548" y="15.3684196" width="8.31665739" height="12.7286171" rx="1"></rect>
                                      <rect id="Rectangle-2-Copy-36" stroke="#979797" stroke-width="0.5" opacity="0.3" x="294.978261" y="15.3684196" width="8.31665739" height="12.7286171" rx="1"></rect>
                                      <path d="M127.324192,15.4609884 L231.607916,30.7826774 L229.837886,38.8120947 C229.837886,38.8120947 215.130915,42.5382684 200.74002,42.5382684 C186.349126,42.5382684 149.501398,41.9292973 149.501398,41.9292973 L171.031643,39.9423085 L140.31011,25.9080606 L121.547104,16.6225337 L127.324192,15.4609884 Z" id="Path-5" stroke="#FFFFFF" stroke-width="0.5" fill="url(#linearGradient-9)" transform="translate(176.577510, 28.999628) rotate(3.000000) translate(-176.577510, -28.999628) "></path>
                                      <polygon id="Path-15" fill="#008D33" points="118.395114 0.324063913 124.467205 14.5656443 133.299528 14.5656443"></polygon>
                                      <mask id="mask-11" fill="white">
                                          <use xlink:href="#path-10"></use>
                                      </mask>
                                      <use id="Path-6" stroke-opacity="0.1" stroke="#979797" stroke-width="0.5" fill="#FFFFFF" xlink:href="#path-10"></use>
                                      <polygon id="Path-11" fill="#DBDCDA" opacity="0.5" mask="url(#mask-11)" points="189.020509 41.7891286 232.479869 40.4772582 231.830033 51.5315914 194.550894 52.2634226 186.845421 46.5276228"></polygon>
                                      <polygon id="Path-11-Copy" fill="url(#linearGradient-12)" opacity="0.5" mask="url(#mask-11)" transform="translate(207.143600, 32.511789) scale(-1, -1) translate(-207.143600, -32.511789) " points="186.501465 29.1904457 229.960824 26.6187069 229.310988 37.6730402 192.031849 38.4048714 184.326376 32.6690715"></polygon>
                                      <path d="M192.077179,27.0871684 L192.077179,54.8042709" id="Line-Copy" stroke="#ACD2E4" stroke-width="0.5" stroke-linecap="square" mask="url(#mask-11)"></path>
                                      <path d="M191.762298,27.0871684 L191.762298,54.8042709" id="Line" stroke="#72C0E0" stroke-width="0.5" stroke-linecap="square" mask="url(#mask-11)"></path>
                                      <path d="M228.603331,28.3470367 L228.603331,56.0641392" id="Line-Copy-3" stroke="#ACD2E4" stroke-width="0.5" stroke-linecap="square" mask="url(#mask-11)"></path>
                                      <path d="M218.527151,28.3470367 L218.527151,56.0641392" id="Line-Copy-4" stroke="#E6E6E6" stroke-width="0.5" stroke-linecap="square" mask="url(#mask-11)"></path>
                                      <path d="M229.862853,28.3470367 L229.862853,56.0641392" id="Line-Copy-2" stroke="#72C0E0" stroke-width="0.5" stroke-linecap="square" mask="url(#mask-11)"></path>
                                      <ellipse id="Oval-2-Copy" fill="#33C066" mask="url(#mask-11)" cx="222.93548" cy="44.0953904" rx="2.51904497" ry="2.51973659"></ellipse>
                                  </g>
                                  <polygon id="Path-16-Copy" fill="#FFFFFF" opacity="0.3" points="140.813626 70.3766396 170.923171 70.4554837 179.599727 67.913532 141.131738 67.913532"></polygon>
                                  <polygon id="Path-16" fill="#D8D8D8" points="138.532072 69.0873996 168.641617 69.1662437 177.318173 66.6242921 138.850184 66.6242921"></polygon>
                                  <polygon id="Path-16-Copy-3" fill="#FFFFFF" opacity="0.3" points="152.149328 76.6759811 182.258873 76.7548252 190.93543 74.2128735 152.46744 74.2128735"></polygon>
                                  <polygon id="Path-16-Copy-2" fill="#D8D8D8" points="149.867774 75.3867411 179.977319 75.4655852 188.653876 72.9236335 150.185886 72.9236335"></polygon>
                              </g>
                          </g>
                      </g>
                  </g>
              </g>
          </svg>